<svg width="800" height="800" viewBox="0 0 211.66666 211.66667" version="1.1" id="logo"
   xmlns="http://www.w3.org/2000/svg" xmlns:svg="http://www.w3.org/2000/svg">
   <g id="g7" transform="matrix(3.1185445,0,0,3.1185445,-224.21262,-224.21262)">
      <g id="g6" style="fill:#d6546a;fill-opacity:1;stroke:none;">
         <path style="fill:#d6546a;fill-opacity:1;stroke:none;"
            d="m 129.81258,129.81258 q -3.95928,3.95929 -8.49331,5.17262 -4.02315,1.08561 -8.17402,0 -4.72561,-1.27719 -8.94034,-5.49192 L 82.17338,107.46175 q -4.214728,-4.21473 -5.491919,-8.940332 -1.085612,-4.150869 0,-8.174019 1.213331,-4.534026 5.172621,-8.493316 3.95929,-3.95929 8.493316,-5.172621 4.02315,-1.085612 8.17402,-2e-6 4.725602,1.277196 8.940332,5.491923 l 22.03153,22.031537 q 4.21472,4.21473 5.49192,8.94033 1.08561,4.15087 0,8.17402 -1.21333,4.53402 -5.17262,8.49331 z m -4.59788,-4.59788 q 2.23508,-2.23509 2.93754,-4.85333 0.63859,-2.42666 0,-4.98104 -0.89404,-3.19298 -3.76771,-6.06665 L 102.35299,87.282141 q -2.87368,-2.873677 -6.066656,-3.767711 -2.554381,-0.638595 -4.981043,0 -2.61824,0.702455 -4.853323,2.937538 -2.235084,2.235084 -2.937538,4.853324 -0.638596,2.426662 0,4.981042 0.894033,3.192977 3.767711,6.066656 l 22.031539,22.03153 q 2.87367,2.87368 6.06665,3.76771 2.55438,0.6386 4.98104,0 2.61825,-0.70245 4.85333,-2.93753 z"
            id="ring-1" />
         <path style="fill:#d6546a;fill-opacity:1;stroke:none;"
            d="m 129.81258,81.85408 q 3.95929,3.959289 5.17262,8.493319 1.08561,4.02315 0,8.174019 -1.27719,4.725602 -5.49192,8.940332 l -22.03153,22.03153 q -4.21473,4.21473 -8.940332,5.49192 -4.150869,1.08561 -8.174019,0 -4.534026,-1.21333 -8.493316,-5.17262 -3.95929,-3.95929 -5.172621,-8.49331 -1.085612,-4.02315 -2e-6,-8.17402 1.277196,-4.7256 5.491923,-8.94033 L 104.20492,82.173389 q 4.21473,-4.214729 8.94033,-5.491929 4.15087,-1.08561 8.17402,0 4.53402,1.21333 8.49331,5.17262 z m -4.59788,4.597889 q -2.23509,-2.23508 -4.85333,-2.93754 -2.42666,-0.63859 -4.98104,0 -3.19298,0.89404 -6.06665,3.76771 L 87.282141,109.31368 q -2.873677,2.87367 -3.767711,6.06665 -0.638595,2.55438 0,4.98104 0.702455,2.61824 2.937538,4.85333 2.235084,2.23508 4.853324,2.93753 2.426662,0.6386 4.981042,0 3.192977,-0.89403 6.066656,-3.76771 l 22.03153,-22.03153 q 2.87368,-2.873679 3.76771,-6.066655 0.6386,-2.554381 0,-4.981043 -0.70245,-2.618243 -2.93753,-4.853323 z"
            id="ring-2" />
      </g>
      <g id="g9" transform="matrix(0.36566058,0,0,0.36566058,60.161585,71.004563)"
         style="stroke:#9966cc;stroke-width:11.1371;stroke-dasharray:none;stroke-opacity:1">
         <path d="m 138.71051,109.05732 -6.65883,-6.65865" id="lens-handle"
            style="fill:none;stroke:#9966cc;stroke-width:11.1371;stroke-linecap:round;stroke-dasharray:none;stroke-opacity:1" />
         <circle cx="123.36768" cy="93.71463" r="12.274149" id="lens-body"
            style="fill:none;stroke:#9966cc;stroke-width:11.1371;stroke-linecap:round;stroke-dasharray:none;stroke-opacity:1" />
      </g>
   </g>
</svg>