<?xml version="1.0" encoding="UTF-8" standalone="no"?>
<!-- Created with Inkscape (http://www.inkscape.org/) -->

<svg
   width="800"
   height="800"
   viewBox="0 0 211.66666 211.66667"
   version="1.1"
   id="svg1"
   xmlns="http://www.w3.org/2000/svg"
   xmlns:svg="http://www.w3.org/2000/svg">
  <defs
     id="defs1" />
  <g
     id="layer1">
    <g
       id="g20"
       transform="rotate(45,105.83333,105.83333)">
      <path
         d="m 45.889441,157.52234 q -12.954,0 -23.114,-6.858 -10.16,-7.112 -16.0020004,-19.05 -5.84200002,-11.938 -5.84200002,-26.67 0,-13.969996 6.35000002,-25.145996 6.6040004,-11.43 17.7800004,-18.034 11.176,-6.604 25.146,-6.604 10.922,0 20.574,5.08 9.652,5.08 18.288,13.208 8.636,8.128 16.509999,17.526 7.874,-9.652 16.002,-18.034 8.382,-8.382 18.034,-13.462 9.906,-5.334 21.59,-5.334 13.97,0 25.146,6.604 11.176,6.604 17.78,18.034 6.604,11.43 6.604,26.161996 0,14.478 -6.604,26.162 -6.604,11.684 -18.034,18.542 -11.43,6.858 -25.908,6.858 -10.668,0 -20.32,-4.318 -9.398,-4.572 -17.78,-11.938 -8.382,-7.366 -16.002,-15.748 -7.619999,8.636 -16.509999,16.256 -8.89,7.62 -19.812,12.192 -10.668,4.572 -23.876,4.572 z m 0.762,-20.32 q 9.144,0 16.764,-4.064 7.874,-4.064 14.732,-10.668 7.112,-6.858 13.716,-14.732 -7.112,-8.635996 -13.97,-15.747996 -6.858,-7.366 -13.716,-11.684 -6.858,-4.572 -13.97,-4.572 -13.208,0 -21.082,7.874 -7.62,7.874 -7.62,21.335996 0,15.494 6.858,23.876 6.858,8.382 18.288,8.382 z m 113.537999,-1.27 q 13.462,0 21.59,-8.128 8.382,-8.382 8.382,-22.86 0,-14.477996 -8.128,-22.351996 -7.874,-8.128 -20.828,-8.128 -7.62,0 -14.478,4.826 -6.858,4.572 -13.462,12.192 -6.604,7.366 -13.716,16.255996 6.858,7.62 13.208,14.224 6.604,6.35 13.462,10.16 6.858,3.81 13.97,3.81 z"
         id="text17"
         style="font-size:254px;font-family:'National Park';-inkscape-font-specification:'National Park';fill:#ef5f6b;stroke-width:1.40626;stroke-linecap:round;stroke-linejoin:round"
         aria-label="∞" />
      <path
         style="font-size:56.4444px;font-family:'National Park';-inkscape-font-specification:'National Park';fill:#4dbdcb;stroke-width:1.40626;stroke-linecap:round;stroke-linejoin:round"
         d="m -37.963257,132.33792 q -4.967108,0 -8.635994,-2.54 -3.668886,-2.59644 -5.700884,-7.22488 -1.975554,-4.62844 -1.975554,-10.78088 0,-6.15244 2.031998,-10.78088 2.088443,-4.684885 5.757329,-7.281327 3.725331,-2.596443 8.579549,-2.596443 5.023552,0 8.635993,2.596443 3.668886,2.596442 5.64444,7.281327 2.031999,4.62844 2.031999,10.78088 0,6.15244 -2.031999,10.78088 -1.975554,4.62844 -5.64444,7.22488 -3.668886,2.54 -8.692437,2.54 z m 0,-4.17688 q 3.612441,0 6.208884,-2.08845 2.596442,-2.08844 4.007552,-5.75732 1.41111,-3.72534 1.41111,-8.52311 0,-4.85422 -1.41111,-8.5231 -1.41111,-3.725334 -4.007552,-5.813777 -2.596443,-2.144887 -6.208884,-2.144887 -3.555998,0 -6.15244,2.144887 -2.596442,2.088443 -4.007553,5.813777 -1.41111,3.66888 -1.41111,8.5231 0,4.79777 1.41111,8.52311 1.411111,3.66888 4.007553,5.75732 2.596442,2.08845 6.15244,2.08845 z m 13.546656,5.87021 q -1.580443,0 -2.82222,-0.73377 -1.185333,-0.67734 -2.201332,-1.97556 -1.015999,-1.29822 -2.088443,-3.04799 -1.241776,-2.032 -1.975554,-3.21733 -0.733777,-1.24178 -1.298221,-1.80623 -0.282222,-0.28222 -0.564444,-0.39511 -0.282222,-0.11289 -0.620888,-0.11289 -1.072444,0 -1.806221,-0.56444 -0.677333,-0.56444 -0.677333,-1.29822 0,-0.79022 0.677333,-1.41111 0.733777,-0.67733 1.806221,-0.67733 1.185332,0 2.31422,0.84666 1.185333,0.79022 2.201332,2.032 1.015999,1.24178 1.862665,2.59644 0.846666,1.29822 1.523999,2.37067 1.015999,1.524 1.919109,2.37066 0.903111,0.84667 1.862666,0.84667 0.733777,0 1.185332,-0.28222 0.451555,-0.33867 1.185332,-0.33867 0.846666,0 1.41111,0.56444 0.620889,0.508 0.620889,1.46756 0,1.016 -0.790222,1.63689 -0.733777,0.62089 -1.806221,0.84666 -1.015999,0.28222 -1.919109,0.28222 z"
         id="text18"
         transform="rotate(-45)"
         aria-label="Q" />
      <path
         style="font-size:56.4444px;font-family:'National Park';-inkscape-font-specification:'National Park';fill:#4dbdcb;stroke-width:1.40626;stroke-linecap:round;stroke-linejoin:round"
         d="m 30.625686,206.79704 q -0.959555,0 -1.636887,-0.67733 -0.677333,-0.67733 -0.677333,-1.63689 v -35.44708 q 0,-0.95956 0.677333,-1.63689 0.677332,-0.67733 1.636887,-0.67733 0.959555,0 1.636888,0.67733 0.677333,0.67733 0.677333,1.63689 v 33.41508 h 15.01421 q 0.959555,0 1.523999,0.62089 0.620888,0.56445 0.620888,1.524 0,0.90311 -0.620888,1.58044 -0.564444,0.62089 -1.523999,0.62089 z"
         id="text19"
         transform="rotate(-45)"
         aria-label="L" />
    </g>
  </g>
</svg>
